<?xml version="1.0" standalone="no"?><!DOCTYPE svg PUBLIC "-//W3C//DTD SVG 1.1//EN" "http://www.w3.org/Graphics/SVG/1.1/DTD/svg11.dtd"><svg class="icon" height="512" viewBox="0 0 1024 1024" version="1.1" xmlns="http://www.w3.org/2000/svg"><path d="M207.750601 448.170253c0 40.038902 32.479739 72.517617 72.517617 72.517617s72.517617-32.479739 72.517617-72.517617-32.479739-72.517617-72.517617-72.517617-72.453149 32.479739-72.517617 72.517617zM399.503856 371.182834c-9.82067 0-18.078751 4.465708-24.774243 13.397125-6.695492 9.030677-10.04375 20.045545-10.04375 33.045627v125.33659c-3.942799-10.915607-64.726164 20.144806-87.937818 20.144805-23.434735 0-43.671639-11.213389-60.262502-33.343409a115.154693 115.154693 0 0 1-7.886621-12.007475c-14.730493 6.350638-25.369807 24.809035-25.369807 46.542013v21.931498c0 26.992771 16.441461 48.924269 36.678364 48.92427h782.514063V512.893346c0-19.550265-5.133927-35.427884-15.549137-47.63388-10.41521-12.205996-23.584138-19.946284-39.431058-23.221887l-544.293497-70.855768h-3.643994zM341.008604 326.56566h79.102593v-19.182898h-32.238239l32.55137-47.454801h-81.3027v19.180851h34.283827zM488.680898 270.781146h119.022791v-28.863374h-48.507784l48.979528-71.40426H485.842247v28.861328h51.584865zM665.296385 234.92859h152.930041v-37.08564h-62.325487l62.931285-91.74554H661.649322v37.084617h66.280566zM137.479141 628.847242V340.779384c0-16.019859-12.986779-29.006637-29.006637-29.006638H50.577932c-16.019859 0-29.006637 12.986779-29.006637 29.006638V888.846834c0 16.019859 12.986779 29.006637 29.006637 29.006637h57.894572c16.019859 0 29.006637-12.986779 29.006637-29.006637v-86.100984c0-16.019859 12.986779-29.006637 29.006638-29.006637h686.410261c16.019859 0 29.006637 12.986779 29.006638 29.006637v86.099961c0 16.019859 12.986779 29.006637 29.006637 29.006637h62.504566c16.019859 0 29.006637-12.986779 29.006638-29.006637V687.535899c0-16.010649-12.972453-28.993335-28.983102-29.006638l-806.977221-0.674359c-16.008602-0.014326-28.981055-12.997012-28.981055-29.00766z" /></svg>